<?xml version="1.0" encoding="utf-8"?>
<!-- Generator: Adobe Illustrator 16.0.0, SVG Export Plug-In . SVG Version: 6.00 Build 0)  -->
<!DOCTYPE svg PUBLIC "-//W3C//DTD SVG 1.1//EN" "http://www.w3.org/Graphics/SVG/1.1/DTD/svg11.dtd">
<svg version="1.1" id="Layer_1" xmlns="http://www.w3.org/2000/svg" xmlns:xlink="http://www.w3.org/1999/xlink" x="0px" y="0px"
	 width="355px" height="210.333px" viewBox="0 0 355 210.333" enable-background="new 0 0 355 210.333" xml:space="preserve">
<path fill="#1E1E1E" d="M328.055,17.52c0.006-0.034,0.006-0.065,0.012-0.099c-26.09-21.03-68.32-19.832-94.856-4.37
	c15.823,16.567,23.303,42.815,49.308,77.167c28.363,37.479,46.759,28.502,50.807,2.321c2.815-18.283-4.279-42.024-10.662-47.92
	c-0.164,41.761-24.456,21.087-31.619,0.283c-8.112-23.597,13.867-33.043,34.858-14.566c21.308,18.752,29.838,61.243,8.978,95.214
	c-29.087,47.335-66.766-0.667-95.225-48.693c-18.164-30.635-29.256-66.429-70.57-51.476
	c31.545,47.482,53.293,124.139,102.132,140.975c-1.204,15.45-18.871,26.706-42.202,7.219
	C162.041,117.646,160.203-17.734,61.886,3.644c-97.248,21.141-50.557,185.019,23.688,166.804
	c1.934,21.606,44.582,70.423,94.309,8.649c52.321,64.979,96.564,7.808,94.207-11.85c28.396,7.949,54.362-13.533,66.618-38.216
	C358.849,92.511,359.256,42.654,328.055,17.52 M27.271,129.173c-46.679-67.589,29.59-173.857,96.717-51.409
	C102.664,109.539,59.275,175.536,27.271,129.173 M89.005,169.447c24.004-7.908,41.309-32.563,54.289-53.327
	c4.505,9.237,9.051,18.486,13.828,27.396C119.516,198.838,92.567,186.741,89.005,169.447"/>
</svg>
